<svg xmlns="http://www.w3.org/2000/svg" version="1.1" xmlns:xlink="http://www.w3.org/1999/xlink" xmlns:svgjs="http://svgjs.dev/svgjs" width="1444" height="559" preserveAspectRatio="none" viewBox="0 0 1444 559"><g mask="url(&quot;#SvgjsMask1022&quot;)" fill="none"><rect width="1444" height="559" x="0" y="0" fill="rgba(251, 228, 226, 1)"></rect><path d="M-20.06 465.47C92.05 465.68 201.41 535.35 422.88 535.35 644.36 535.35 643.28 465.36 865.83 465.47 1088.37 465.58 1191.28 620.48 1308.77 622.79" stroke="rgba(89, 38, 24, 0.58)" stroke-width="2"></path><path d="M-2.48 472.45C146.48 467.58 267.31 236.94 545.5 237.67 823.69 238.4 921.44 640.84 1093.48 665.1" stroke="rgba(89, 38, 24, 0.58)" stroke-width="2"></path><path d="M-184.82 303.54C-26.93 301.09 178.52 104.04 415.75 107.89 652.97 111.74 588.66 533.68 716.03 602.05" stroke="rgba(89, 38, 24, 0.58)" stroke-width="2"></path><path d="M-2.23 189.74C168.24 193.14 299.76 412.43 640.12 418.93 980.47 425.43 1112.57 637.94 1282.46 641.05" stroke="rgba(89, 38, 24, 0.58)" stroke-width="2"></path><path d="M-24.93 133.7C75.9 133.97 173.68 203.58 372.28 203.58 570.89 203.58 545.41 121.19 769.5 133.7 993.59 146.21 1017.75 571.15 1166.71 621.72" stroke="rgba(89, 38, 24, 0.58)" stroke-width="2"></path></g><defs><mask id="SvgjsMask1022"><rect width="1444" height="559" fill="#ffffff"></rect></mask></defs></svg>