<?xml version="1.0" standalone="no"?>
<svg xmlns:xlink="http://www.w3.org/1999/xlink" id="wave" style="transform:rotate(0deg); transition: 0.3s" viewBox="0 0 1440 290" version="1.1" xmlns="http://www.w3.org/2000/svg"><defs><linearGradient id="sw-gradient-0" x1="0" x2="0" y1="1" y2="0"><stop stop-color="rgba(191, 132, 150, 1)" offset="0%"/><stop stop-color="rgba(255, 255, 255, 1)" offset="100%"/></linearGradient></defs><path style="transform:translate(0, 0px); opacity:1" fill="url(#sw-gradient-0)" d="M0,58L48,72.5C96,87,192,116,288,140.2C384,164,480,184,576,188.5C672,193,768,184,864,159.5C960,135,1056,97,1152,87C1248,77,1344,97,1440,111.2C1536,126,1632,135,1728,125.7C1824,116,1920,87,2016,77.3C2112,68,2208,77,2304,106.3C2400,135,2496,184,2592,178.8C2688,174,2784,116,2880,111.2C2976,106,3072,155,3168,174C3264,193,3360,184,3456,149.8C3552,116,3648,58,3744,33.8C3840,10,3936,19,4032,29C4128,39,4224,48,4320,48.3C4416,48,4512,39,4608,29C4704,19,4800,10,4896,29C4992,48,5088,97,5184,111.2C5280,126,5376,106,5472,96.7C5568,87,5664,87,5760,106.3C5856,126,5952,164,6048,193.3C6144,222,6240,242,6336,232C6432,222,6528,184,6624,174C6720,164,6816,184,6864,193.3L6912,203L6912,290L6864,290C6816,290,6720,290,6624,290C6528,290,6432,290,6336,290C6240,290,6144,290,6048,290C5952,290,5856,290,5760,290C5664,290,5568,290,5472,290C5376,290,5280,290,5184,290C5088,290,4992,290,4896,290C4800,290,4704,290,4608,290C4512,290,4416,290,4320,290C4224,290,4128,290,4032,290C3936,290,3840,290,3744,290C3648,290,3552,290,3456,290C3360,290,3264,290,3168,290C3072,290,2976,290,2880,290C2784,290,2688,290,2592,290C2496,290,2400,290,2304,290C2208,290,2112,290,2016,290C1920,290,1824,290,1728,290C1632,290,1536,290,1440,290C1344,290,1248,290,1152,290C1056,290,960,290,864,290C768,290,672,290,576,290C480,290,384,290,288,290C192,290,96,290,48,290L0,290Z"/></svg>